# xmcd CD database file
#
# Track frame offsets:
#	150
#	10673
#	23326
#	36310
#	46868
#	60070
#	71362
#	84133
#	96646
#	109026
#	119873
#	131973
#	142625
#	164395
#	174618
#	185655
#	197304
#	208321
#	221539
#	233621
#	243572
#	256868
#	269516
#	281078
#	292320
#	307281
#	319302
#	333222
#	346999
#
# Disc length: 4799 seconds
#
# Revision: 2
# Processed by: cddbd v1.5.2PL0 Copyright (c) Steve Scherf et al.
# Submitted via: CDex 1.94
#
DISCID=b212bd1d
DTITLE=Various Artist - Fire and Fury Story =03 Rhythm Of The Blues
DYEAR=2005
DGENRE=Soul/R&B
TTITLE0=Arthur Crudup - That's All Right
TTITLE1=Elmore James - The Sky Is Crying
TTITLE2=Tiny Grimes - Second Floor Rear
TTITLE3=Mighty Joe Young - Why Baby
TTITLE4=Mighty Joe Young - Empty Arms
TTITLE5=Sammy Myers - You Don't Have To Go
TTITLE6=Sammy Myers - Sad, Sad Lonesome Day
TTITLE7=Champion Jack Dupree - Stumbling Block Blues
TTITLE8=Champion Jack Dupree - Shim, Sham, Shimmy
TTITLE9=Champion Jack Dupree - Shake, Baby, Shake
TTITLE10=Johnny Acey - I Go Into Orbit
TTITLE11=Johnny Acey - What Am I Going To Do
TTITLE12=Elmore James - Something Inside Me
TTITLE13=Elmore James - Sunnyland Train
TTITLE14=Arthur Crudup - Rock Me Mama
TTITLE15=Arthur Crudup - Mean Ole Frisco
TTITLE16=Buster Brown - Is You Is Or Is You Ain't My Baby
TTITLE17=Buster Brown - Doctor Brown
TTITLE18=Tarheel Slim and Little Annie - It's Too Late
TTITLE19=Tarheel Slim and Little Annie - Lock Me In Your Heart
TTITLE20=Tarheel Slim - Wildcat Tamer
TTITLE21=Tiny Grimes - Juicy Fruit
TTITLE22=Elmore James - Shake Your Money Maker
TTITLE23=Elmore James - Look On Yonder Wall
TTITLE24=Elmore James - It Hurts Me Too
TTITLE25=Sonny Terry - Harmonica Hop
TTITLE26=Brownie McGhee - Don't Dog Your Woman
TTITLE27=Lightnin' Hopkins - Mojo Hand
TTITLE28=Sonny Terry - Doggin' My Heart Around
EXTD=
EXTT0=
EXTT1=
EXTT2=
EXTT3=
EXTT4=
EXTT5=
EXTT6=
EXTT7=
EXTT8=
EXTT9=
EXTT10=
EXTT11=
EXTT12=
EXTT13=
EXTT14=
EXTT15=
EXTT16=
EXTT17=
EXTT18=
EXTT19=
EXTT20=
EXTT21=
EXTT22=
EXTT23=
EXTT24=
EXTT25=
EXTT26=
EXTT27=
EXTT28=
PLAYORDER=
